<?xml version="1.0"?>
<svg xmlns:rdf="http://www.w3.org/1999/02/22-rdf-syntax-ns#" xmlns="http://www.w3.org/2000/svg" xmlns:cc="http://web.resource.org/cc/" xmlns:xlink="http://www.w3.org/1999/xlink" xmlns:dc="http://purl.org/dc/elements/1.1/" xmlns:svg="http://www.w3.org/2000/svg" id="svg5723" viewBox="0 0 1024 400" version="1.0">
  <defs id="defs5725">
    <pattern id="pattern16303" xlink:href="#pattern9238" patternTransform="matrix(.60653 0 0 .60653 456.49 743.92)"/>
    <linearGradient id="linearGradient16283">
      <stop id="stop16285" stop-color="#252b41" offset="0"/>
      <stop id="stop16287" stop-color="#252b41" stop-opacity="0" offset="1"/>
    </linearGradient>
    <linearGradient id="linearGradient7359">
      <stop id="stop7361" offset="0"/>
      <stop id="stop7363" stop-color="#1e1d2e" offset="1"/>
    </linearGradient>
    <linearGradient id="linearGradient7172">
      <stop id="stop7174" stop-color="#fff" offset="0"/>
      <stop id="stop7176" stop-color="#03070b" stop-opacity=".65482" offset="1"/>
    </linearGradient>
    <linearGradient id="linearGradient6994">
      <stop id="stop6996" stop-color="#1b2c3c" offset="0"/>
      <stop id="stop6998" stop-color="#dfe8f1" offset="1"/>
    </linearGradient>
    <linearGradient id="linearGradient5896">
      <stop id="stop5898" stop-color="#fff" offset="0"/>
      <stop id="stop5907" stop-color="#a3701c" offset=".21875"/>
      <stop id="stop5900" stop-color="#582d00" offset="1"/>
    </linearGradient>
    <linearGradient id="linearGradient5915">
      <stop id="stop5917" stop-color="#aaa" offset="0"/>
      <stop id="stop5919" stop-color="#aaa" stop-opacity="0" offset="1"/>
    </linearGradient>
    <pattern id="pattern9238" xlink:href="#pattern8227" patternTransform="matrix(.60653 0 0 .60653 308.75 855.34)"/>
    <linearGradient id="linearGradient5979">
      <stop id="stop5981" stop-color="#eee" offset="0"/>
      <stop id="stop5983" stop-color="#eee" stop-opacity="0" offset="1"/>
    </linearGradient>
    <linearGradient id="linearGradient4971">
      <stop id="stop4973" offset="0"/>
      <stop id="stop4975" stop-opacity="0" offset="1"/>
    </linearGradient>
    <linearGradient id="linearGradient7563">
      <stop id="stop7565" stop-color="#888" offset="0"/>
      <stop id="stop7567" stop-color="#fff" offset="1"/>
    </linearGradient>
    <linearGradient id="linearGradient6653">
      <stop id="stop6655" stop-color="#410e0e" offset="0"/>
      <stop id="stop6657" stop-color="#100303" stop-opacity="0" offset="1"/>
    </linearGradient>
    <pattern id="pattern8227" width="17.5" patternUnits="userSpaceOnUse" patternTransform="translate(308.75 855.34)" height="13">
      <path id="path8209" d="m6.6667 9.6667c0-1.84-1.4934-3.3334-3.3334-3.3334s-3.3333 1.4934-3.3333 3.3334c5.025e-11 1.8403 1.4933 3.3333 3.3333 3.3333s3.3333-1.493 3.3334-3.3333z" style="color:#000000" fill-rule="evenodd"/>
      <path id="path8207" d="m14 9.6667c0-1.84-1.493-3.3334-3.333-3.3334-1.8403 0-3.3337 1.4934-3.3337 3.3334 0 1.8403 1.4933 3.3333 3.3337 3.3333 1.84 0 3.333-1.493 3.333-3.3333z" style="color:#000000" fill-rule="evenodd"/>
      <path id="path8185" d="m10.167 3.3333c0-1.84-1.4937-3.3333-3.3337-3.3333s-3.3333 1.4933-3.3333 3.3333 1.4933 3.3334 3.3333 3.3334 3.3337-1.4934 3.3337-3.3334z" style="color:#000000" fill-rule="evenodd"/>
      <path id="path8189" d="m17.5 3.3333c0-1.84-1.493-3.3333-3.333-3.3333s-3.334 1.4933-3.334 3.3333 1.494 3.3334 3.334 3.3334 3.333-1.4934 3.333-3.3334z" style="color:#000000" fill-rule="evenodd"/>
    </pattern>
    <radialGradient id="radialGradient16455" xlink:href="#linearGradient7359" spreadMethod="reflect" gradientUnits="userSpaceOnUse" cy="590.57" cx="621.83" gradientTransform="matrix(.72473 4.7749e-7 -9.2254e-7 1.4002 607.01 -234.04)" r="71.858"/>
    <radialGradient id="radialGradient16457" xlink:href="#linearGradient5979" spreadMethod="reflect" gradientUnits="userSpaceOnUse" cy="608.5" cx="632.27" gradientTransform="matrix(.49031 .012063 -.019763 .80327 779.59 102.59)" r="71.858"/>
    <radialGradient id="radialGradient16459" xlink:href="#linearGradient4971" spreadMethod="reflect" gradientUnits="userSpaceOnUse" cy="603.69" cx="627.11" gradientTransform="matrix(.85686 0 .0000017021 1.6555 524.14 -388.15)" r="71.858"/>
    <linearGradient id="linearGradient16461" y2="879.24" xlink:href="#linearGradient6994" spreadMethod="reflect" gradientUnits="userSpaceOnUse" x2="561.7" gradientTransform="translate(431.34)" y1="528.76" x1="667.76"/>
    <linearGradient id="linearGradient16463" y2="527.14" xlink:href="#linearGradient4971" gradientUnits="userSpaceOnUse" x2="636.76" gradientTransform="translate(431.34)" y1="539.87" x1="627.95"/>
    <linearGradient id="linearGradient16465" y2="546.08" xlink:href="#linearGradient5979" gradientUnits="userSpaceOnUse" x2="639.13" gradientTransform="translate(431.34)" y1="564.97" x1="617.48"/>
    <linearGradient id="linearGradient16467" y2="564.67" xlink:href="#linearGradient7172" gradientUnits="userSpaceOnUse" x2="634.98" gradientTransform="translate(431.34)" y1="522.03" x1="636.04"/>
    <radialGradient id="radialGradient16469" xlink:href="#linearGradient7172" gradientUnits="userSpaceOnUse" cy="583.85" cx="624.91" gradientTransform="matrix(11.672 0 0 10.017 -6665.7 -5267.5)" r="8.25"/>
    <linearGradient id="linearGradient16471" y2="622.66" xlink:href="#linearGradient7172" gradientUnits="userSpaceOnUse" x2="630.81" gradientTransform="translate(431.34)" y1="584.26" x1="640.39"/>
    <linearGradient id="linearGradient16473" y2="674.8" xlink:href="#linearGradient7172" gradientUnits="userSpaceOnUse" x2="623.25" gradientTransform="translate(431.34)" y1="643.59" x1="627.19"/>
    <linearGradient id="linearGradient16475" y2="640.13" xlink:href="#linearGradient7172" gradientUnits="userSpaceOnUse" x2="594.91" gradientTransform="translate(431.34)" y1="611.66" x1="607.39"/>
    <linearGradient id="linearGradient16477" y2="572.33" xlink:href="#linearGradient7172" gradientUnits="userSpaceOnUse" x2="591.7" gradientTransform="translate(431.34)" y1="543.92" x1="602.03"/>
    <linearGradient id="linearGradient16479" y2="573.3" xlink:href="#linearGradient4971" gradientUnits="userSpaceOnUse" x2="641.48" gradientTransform="translate(431.34)" y1="611.31" x1="629.38"/>
    <linearGradient id="linearGradient16481" y2="618.38" xlink:href="#linearGradient4971" gradientUnits="userSpaceOnUse" x2="633.67" gradientTransform="translate(431.34)" y1="647.56" x1="613.96"/>
    <linearGradient id="linearGradient16483" y2="591.56" xlink:href="#linearGradient4971" gradientUnits="userSpaceOnUse" x2="592.51" gradientTransform="translate(431.34)" y1="610.96" x1="600.35"/>
    <linearGradient id="linearGradient16485" y2="569.36" xlink:href="#linearGradient4971" gradientUnits="userSpaceOnUse" x2="600.72" gradientTransform="translate(431.34)" y1="545.46" x1="606.29"/>
    <linearGradient id="linearGradient16487" y2="545.77" xlink:href="#linearGradient6994" gradientUnits="userSpaceOnUse" x2="623.41" gradientTransform="translate(431.34)" y1="547.36" x1="610.31"/>
    <linearGradient id="linearGradient16489" y2="668.42" xlink:href="#linearGradient6994" gradientUnits="userSpaceOnUse" x2="626.22" gradientTransform="translate(431.34)" y1="613.67" x1="606.05"/>
    <linearGradient id="linearGradient16491" y2="638.06" xlink:href="#linearGradient6994" gradientUnits="userSpaceOnUse" x2="640.17" gradientTransform="translate(431.34)" y1="627.22" x1="623.2"/>
    <linearGradient id="linearGradient16493" y2="572.53" xlink:href="#linearGradient6994" gradientUnits="userSpaceOnUse" x2="642" gradientTransform="translate(431.34)" y1="599.91" x1="599.1"/>
    <radialGradient id="radialGradient16495" xlink:href="#linearGradient7359" spreadMethod="reflect" gradientUnits="userSpaceOnUse" cy="590.57" cx="621.83" gradientTransform="matrix(.72473 4.7749e-7 -9.2254e-7 1.4002 175.67 -234.04)" r="71.858"/>
    <radialGradient id="radialGradient16497" xlink:href="#linearGradient5979" spreadMethod="reflect" gradientUnits="userSpaceOnUse" cy="608.5" cx="632.27" gradientTransform="matrix(.49031 .012063 -.019763 .80327 348.25 102.59)" r="71.858"/>
    <radialGradient id="radialGradient16499" xlink:href="#linearGradient4971" spreadMethod="reflect" gradientUnits="userSpaceOnUse" cy="603.69" cx="627.11" gradientTransform="matrix(.72473 4.7749e-7 -9.2254e-7 1.4002 175.67 -234.04)" r="71.858"/>
    <linearGradient id="linearGradient16501" y2="543.44" xlink:href="#linearGradient6994" spreadMethod="reflect" gradientUnits="userSpaceOnUse" x2="640.58" gradientTransform="translate(-2,2)" y1="650.86" x1="611.35"/>
    <linearGradient id="linearGradient16503" y2="660.17" xlink:href="#linearGradient6994" spreadMethod="reflect" gradientUnits="userSpaceOnUse" x2="529.11" y1="585.91" x1="621"/>
    <linearGradient id="linearGradient16505" y2="527.14" xlink:href="#linearGradient4971" gradientUnits="userSpaceOnUse" x2="636.76" y1="539.87" x1="627.95"/>
    <linearGradient id="linearGradient16507" y2="546.08" xlink:href="#linearGradient5979" gradientUnits="userSpaceOnUse" x2="639.13" y1="564.97" x1="617.48"/>
    <linearGradient id="linearGradient16509" y2="564.67" xlink:href="#linearGradient7172" gradientUnits="userSpaceOnUse" x2="634.98" y1="522.03" x1="636.04"/>
    <linearGradient id="linearGradient16513" y2="622.66" xlink:href="#linearGradient7172" gradientUnits="userSpaceOnUse" x2="630.81" y1="584.26" x1="640.39"/>
    <linearGradient id="linearGradient16515" y2="674.8" xlink:href="#linearGradient7172" gradientUnits="userSpaceOnUse" x2="623.25" y1="643.59" x1="627.19"/>
    <linearGradient id="linearGradient16517" y2="640.13" xlink:href="#linearGradient7172" gradientUnits="userSpaceOnUse" x2="594.91" y1="611.66" x1="607.39"/>
    <linearGradient id="linearGradient16519" y2="572.33" xlink:href="#linearGradient7172" gradientUnits="userSpaceOnUse" x2="591.7" y1="543.92" x1="602.03"/>
    <linearGradient id="linearGradient16521" y2="573.3" xlink:href="#linearGradient4971" gradientUnits="userSpaceOnUse" x2="641.48" y1="611.31" x1="629.38"/>
    <linearGradient id="linearGradient16523" y2="618.38" xlink:href="#linearGradient4971" gradientUnits="userSpaceOnUse" x2="633.67" y1="647.56" x1="613.96"/>
    <linearGradient id="linearGradient16525" y2="591.56" xlink:href="#linearGradient4971" gradientUnits="userSpaceOnUse" x2="592.51" y1="610.96" x1="600.35"/>
    <linearGradient id="linearGradient16527" y2="569.36" xlink:href="#linearGradient4971" gradientUnits="userSpaceOnUse" x2="600.72" y1="545.46" x1="606.29"/>
    <linearGradient id="linearGradient16529" y2="545.77" xlink:href="#linearGradient6994" gradientUnits="userSpaceOnUse" x2="623.41" y1="547.36" x1="610.31"/>
    <linearGradient id="linearGradient16531" y2="668.42" xlink:href="#linearGradient6994" gradientUnits="userSpaceOnUse" x2="626.22" y1="613.67" x1="606.05"/>
    <linearGradient id="linearGradient16533" y2="638.06" xlink:href="#linearGradient6994" gradientUnits="userSpaceOnUse" x2="640.17" y1="627.22" x1="623.2"/>
    <linearGradient id="linearGradient16535" y2="572.53" xlink:href="#linearGradient6994" gradientUnits="userSpaceOnUse" x2="642" y1="599.91" x1="599.1"/>
    <radialGradient id="radialGradient16537" xlink:href="#linearGradient7359" spreadMethod="reflect" gradientUnits="userSpaceOnUse" cy="586.53" cx="623.78" gradientTransform="matrix(.70707 .040313 -.0049840 1.2938 -140.36 -317.8)" r="71.858"/>
    <linearGradient id="linearGradient16539" y2="482.91" xlink:href="#linearGradient6653" gradientUnits="userSpaceOnUse" x2="647.59" gradientTransform="translate(147.74 -111.43)" y1="307.84" x1="718.94"/>
    <linearGradient id="linearGradient16541" y2="660.5" xlink:href="#linearGradient6653" gradientUnits="userSpaceOnUse" x2="140.71" gradientTransform="translate(147.74 -111.43)" y1="605.62" x1="138.69"/>
    <linearGradient id="linearGradient16543" y2="545.88" xlink:href="#linearGradient5979" gradientUnits="userSpaceOnUse" x2="198.08" gradientTransform="translate(147.74 -111.43)" y1="720.53" x1="174.99"/>
    <linearGradient id="linearGradient16545" y2="627.38" xlink:href="#linearGradient6653" gradientUnits="userSpaceOnUse" x2="181.71" gradientTransform="translate(147.74 -111.43)" y1="654.62" x1="180.69"/>
    <radialGradient id="radialGradient16547" xlink:href="#linearGradient6653" gradientUnits="userSpaceOnUse" cy="843.38" cx="144.49" gradientTransform="matrix(2.3862 -.19755 .045194 .54589 -102.23 18.584)" r="329.03"/>
    <linearGradient id="linearGradient16549" y2="389.54" xlink:href="#linearGradient5979" gradientUnits="userSpaceOnUse" x2="213.55" gradientTransform="translate(147.74 -111.43)" y1="493.84" x1="21.762"/>
    <linearGradient id="linearGradient16551" y2="530.64" xlink:href="#linearGradient5896" gradientUnits="userSpaceOnUse" x2="364.31" gradientTransform="translate(147.74 -111.43)" y1="530.64" x1="15.064"/>
    <linearGradient id="linearGradient16553" y2="348.48" xlink:href="#linearGradient16283" gradientUnits="userSpaceOnUse" x2="526.56" gradientTransform="translate(147.74 -111.43)" y1="390.62" x1="531.39"/>
    <linearGradient id="linearGradient16555" y2="690.57" xlink:href="#linearGradient5979" gradientUnits="userSpaceOnUse" x2="527.18" gradientTransform="translate(149.6 -113.3)" y1="631.95" x1="536.6"/>
    <linearGradient id="linearGradient16557" y2="657.3" xlink:href="#linearGradient4971" gradientUnits="userSpaceOnUse" x2="350.01" y1="525.75" x1="391.63"/>
    <linearGradient id="linearGradient16559" y2="568.25" xlink:href="#linearGradient5979" gradientUnits="userSpaceOnUse" x2="432.79" y1="733.72" x1="370.79"/>
    <linearGradient id="linearGradient16561" y2="638.3" xlink:href="#linearGradient4971" gradientUnits="userSpaceOnUse" x2="357.01" y1="657.3" x1="356.13"/>
    <linearGradient id="linearGradient16563" y2="597.57" xlink:href="#linearGradient5979" gradientUnits="userSpaceOnUse" x2="-6.6623" gradientTransform="translate(147.74 -111.43)" y1="671.11" x1="-2.4197"/>
    <linearGradient id="linearGradient16565" y2="614.26" xlink:href="#linearGradient4971" gradientUnits="userSpaceOnUse" x2="27.494" gradientTransform="translate(147.74 -111.43)" y1="640.95" x1="23.116"/>
    <linearGradient id="linearGradient16567" y2="470.67" xlink:href="#linearGradient5979" gradientUnits="userSpaceOnUse" x2="71.355" y1="420.28" x1="50.772"/>
    <linearGradient id="linearGradient16569" y2="488.08" xlink:href="#linearGradient5915" gradientUnits="userSpaceOnUse" x2="3.4805" gradientTransform="matrix(1.1326 0 0 1.0544 -4.4636 -23.154)" y1="510.41" x1="1.4749"/>
    <linearGradient id="linearGradient16571" y2="493.75" xlink:href="#linearGradient5979" gradientUnits="userSpaceOnUse" x2="-1039.7" gradientTransform="translate(1056.9 6.364)" y1="503.28" x1="-1039.7"/>
    <linearGradient id="linearGradient16573" y2="457.21" xlink:href="#linearGradient5979" gradientUnits="userSpaceOnUse" x2="64.187" gradientTransform="matrix(.87892 0 0 .89240 7.0644 49.507)" y1="428.33" x1="38.673"/>
    <linearGradient id="linearGradient16575" y2="447.78" xlink:href="#linearGradient5979" gradientUnits="userSpaceOnUse" x2="66.614" gradientTransform="matrix(.87892 0 0 .89240 7.0644 49.507)" y1="475.14" x1="51.647"/>
    <linearGradient id="linearGradient16577" y2="452.07" xlink:href="#linearGradient5979" gradientUnits="userSpaceOnUse" x2="64.108" gradientTransform="matrix(1.2601 -.54079 -.070165 1.0859 -3.803 9.3962)" y1="420.98" x1="41.741"/>
    <linearGradient id="linearGradient16579" y2="514.43" xlink:href="#linearGradient7563" gradientUnits="userSpaceOnUse" x2="-838.75" gradientTransform="translate(1175.5 -112.68)" y1="514.43" x1="-858.5"/>
    <radialGradient id="radialGradient16581" xlink:href="#linearGradient5979" gradientUnits="userSpaceOnUse" cy="622.22" cx="485.42" gradientTransform="matrix(.87144 -.25291 .45002 1.5506 -62.869 -321.83)" r="83.828"/>
    <linearGradient id="linearGradient16583" y2="462.82" xlink:href="#linearGradient5896" gradientUnits="userSpaceOnUse" x2="711.39" gradientTransform="translate(147.93 -111.28)" y1="547.23" x1="480.03"/>
    <radialGradient id="radialGradient16585" xlink:href="#linearGradient6653" gradientUnits="userSpaceOnUse" cy="282.17" cx="546.22" gradientTransform="matrix(3.4352 0 0 2.2033 -1194.6 -430.37)" r="85.484"/>
    <linearGradient id="linearGradient16587" y2="512.13" gradientUnits="userSpaceOnUse" x2="562.86" y1="482.08" x1="577">
      <stop id="stop9889" stop-color="#fd3301" offset="0"/>
      <stop id="stop9891" stop-color="#fd3301" stop-opacity="0" offset="1"/>
    </linearGradient>
    <linearGradient id="linearGradient16589" y2="412.09" xlink:href="#linearGradient6653" gradientUnits="userSpaceOnUse" x2="696.86" gradientTransform="translate(147.93 -111.28)" y1="369.54" x1="698.37"/>
    <radialGradient id="radialGradient16591" xlink:href="#linearGradient6653" gradientUnits="userSpaceOnUse" cy="524.13" cx="694.81" gradientTransform="matrix(2.8264 -.75734 .29830 1.1133 -1280.3 299.46)" r="74.5"/>
    <radialGradient id="radialGradient16593" xlink:href="#linearGradient6653" gradientUnits="userSpaceOnUse" cy="384.78" cx="759.13" gradientTransform="matrix(2.3495 -.64123 .45595 1.6707 -993.18 130.55)" r="109.08"/>
    <radialGradient id="radialGradient16595" xlink:href="#linearGradient6653" gradientUnits="userSpaceOnUse" cy="545.55" cx="740.1" gradientTransform="matrix(2.9001 0 0 4.6481 -1417.3 -1993.7)" r="41.69"/>
    <radialGradient id="radialGradient16597" xlink:href="#linearGradient6653" gradientUnits="userSpaceOnUse" cy="403.92" cx="743.96" gradientTransform="matrix(2.121 .56833 -.27160 1.0136 -565.77 -547.95)" r="18.188"/>
    <radialGradient id="radialGradient16599" xlink:href="#linearGradient5979" gradientUnits="userSpaceOnUse" cy="662.38" cx="735.36" gradientTransform="matrix(2.6548 -.71860 .15105 .55805 -1169.1 673.5)" r="78.531"/>
    <linearGradient id="linearGradient16601" y2="585.67" xlink:href="#linearGradient5979" gradientUnits="userSpaceOnUse" x2="738.97" gradientTransform="translate(147.73 -111.44)" y1="629.16" x1="746.39"/>
    <radialGradient id="radialGradient16603" xlink:href="#linearGradient6653" gradientUnits="userSpaceOnUse" cy="440.88" cx="694.37" gradientTransform="matrix(3.5384 0 0 5.1887 -1615.2 -1965.7)" r="11.276"/>
    <radialGradient id="radialGradient16605" xlink:href="#linearGradient6653" gradientUnits="userSpaceOnUse" cy="438.91" cx="683.88" gradientTransform="matrix(5.2604 .0000029916 -.0000020701 3.6416 -2792.9 -1286.6)" r="11.276"/>
    <radialGradient id="radialGradient16607" xlink:href="#linearGradient6653" gradientUnits="userSpaceOnUse" cy="436.95" cx="669.97" gradientTransform="matrix(2.1139 -2.1139 3.4717 3.4717 -2159.9 218.56)" r="11.276"/>
    <linearGradient id="linearGradient16609" y2="488.24" gradientUnits="userSpaceOnUse" x2="666.5" gradientTransform="translate(147.74 -111.43)" y1="488.24" x1="641">
      <stop id="stop6170" stop-color="#fff" stop-opacity="0" offset="0"/>
      <stop id="stop6172" stop-color="#fdca01" offset="1"/>
    </linearGradient>
    <radialGradient id="radialGradient16611" xlink:href="#linearGradient6653" gradientUnits="userSpaceOnUse" cy="458.76" cx="670.3" gradientTransform="matrix(3.8402 .79090 -1.0111 4.9095 -1192.1 -2457.2)" r="43.912"/>
    <radialGradient id="radialGradient16613" xlink:href="#linearGradient5979" gradientUnits="userSpaceOnUse" cy="603.62" cx="731.87" gradientTransform="matrix(.89447 -.26389 .16359 .55450 37.516 362)" r="78.531"/>
    <radialGradient id="radialGradient16615" xlink:href="#linearGradient5979" gradientUnits="userSpaceOnUse" cy="596.82" cx="677.77" gradientTransform="matrix(1.4472 -.53049 .12258 .33439 -283.84 677.44)" r="78.531"/>
    <radialGradient id="radialGradient16619" xlink:href="#linearGradient6653" gradientUnits="userSpaceOnUse" cy="444.14" cx="672.33" gradientTransform="matrix(-1.845 .45877 -1.1814 -4.7514 2551.6 2162.3)" r="11.276"/>
    <radialGradient id="radialGradient16623" xlink:href="#linearGradient6653" gradientUnits="userSpaceOnUse" cy="414.13" cx="692.58" gradientTransform="matrix(.27215 -6.7515e-8 8.4676e-8 .89047 803.54 -44.95)" r="109.08"/>
    <linearGradient id="linearGradient16625" y2="457.09" xlink:href="#linearGradient5915" gradientUnits="userSpaceOnUse" x2="524.5" y1="440.59" x1="527.97"/>
    <linearGradient id="linearGradient16627" y2="461.89" xlink:href="#linearGradient7563" spreadMethod="reflect" gradientUnits="userSpaceOnUse" x2="503.73" y1="449.44" x1="494.36"/>
    <linearGradient id="linearGradient16629" y2="485.41" xlink:href="#linearGradient7563" spreadMethod="reflect" gradientUnits="userSpaceOnUse" x2="479.86" y1="474.01" x1="470.5"/>
    <linearGradient id="linearGradient16631" y2="473.16" xlink:href="#linearGradient4971" gradientUnits="userSpaceOnUse" x2="491.38" y1="465.17" x1="490.31"/>
    <linearGradient id="linearGradient16633" y2="481.29" xlink:href="#linearGradient4971" gradientUnits="userSpaceOnUse" x2="473.85" y1="474.12" x1="463.08"/>
    <linearGradient id="linearGradient16635" y2="455.03" xlink:href="#linearGradient4971" gradientUnits="userSpaceOnUse" x2="511.13" y1="440.05" x1="502.48"/>
    <linearGradient id="linearGradient16637" y2="450.26" xlink:href="#linearGradient7563" gradientUnits="userSpaceOnUse" x2="529.98" y1="457.51" x1="516.01"/>
    <radialGradient id="radialGradient16639" xlink:href="#linearGradient5979" gradientUnits="userSpaceOnUse" cy="456.27" cx="498.18" gradientTransform="matrix(3.5471 0 .84321 3.8858 -1683.1 -1299.1)" r="5.5547"/>
    <radialGradient id="radialGradient16641" xlink:href="#linearGradient5979" gradientUnits="userSpaceOnUse" cy="446.96" cx="512.22" gradientTransform="matrix(2.9095 0 0 3.0953 -978.07 -936.85)" r="5.5547"/>
    <radialGradient id="radialGradient16643" xlink:href="#linearGradient5979" gradientUnits="userSpaceOnUse" cy="515.31" cx="429.21" gradientTransform="matrix(1.5498 0 0 .086121 -235.98 470.93)" r="29.948"/>
    <linearGradient id="linearGradient16645" y2="386.31" xlink:href="#linearGradient6994" gradientUnits="userSpaceOnUse" x2="363.75" gradientTransform="translate(147.74 -111.43)" y1="431.09" x1="360.88"/>
    <linearGradient id="linearGradient16647" y2="415.67" xlink:href="#linearGradient6994" gradientUnits="userSpaceOnUse" x2="224.29" gradientTransform="translate(147.74 -111.43)" y1="427.08" x1="223.41"/>
    <linearGradient id="linearGradient16649" y2="391.98" xlink:href="#linearGradient16283" gradientUnits="userSpaceOnUse" x2="543.56" gradientTransform="translate(147.74 -111.43)" y1="426.1" x1="505.09"/>
    <radialGradient id="radialGradient16804" gradientUnits="userSpaceOnUse" cy="440.62" cx="540.56" gradientTransform="matrix(1 0 0 .48562 0 226.65)" r="424.05">
      <stop id="stop16770" offset="0"/>
      <stop id="stop16776" stop-opacity=".49804" offset=".69531"/>
      <stop id="stop16772" stop-opacity="0" offset="1"/>
    </radialGradient>
  </defs>
  <g id="layer1" transform="translate(-26.76 -245.75)">
    <g id="g16800" fill-rule="evenodd" fill="url(#radialGradient16804)" transform="matrix(.84393 0 0 .84393 65.464 83.628)">
      <path id="path16796" d="m964.6 440.62a424.05 205.93 0 1 1 -848.09 0 424.05 205.93 0 1 1 848.09 0z" style="color:#000000" transform="matrix(1.292 0 -.70601 .51368 200.73 311.6)"/>
      <path id="path16653" d="m964.6 440.62a424.05 205.93 0 1 1 -848.09 0 424.05 205.93 0 1 1 848.09 0z" style="color:#000000" transform="matrix(1.292 0 -.70601 .51368 138.51 311.6)"/>
    </g>
    <g id="g16312" transform="matrix(.82132 0 0 .82132 69.898 106.93)">
      <path id="path7345" d="m770.61 336.7c-2.28 0.09-4.61 0.54-6.97 1.4-30.21 11.07-54.72 82.9-54.72 160.35 0 17.4 1.24 33.63 3.5 48.18l101.5-31.09c2.87-18.09 4.47-37.43 4.47-57.16 0-71.39-20.85-122.76-47.78-121.68z" style="color:#000000" fill-rule="evenodd"/>
      <path id="path11311" d="m986.02 335.67c-18.09 0.62-25.01 36.17-30.66 80.75-2.57 20.3-5.29 42.13-5.53 59.93l0.37-2.75 44.38-76.65 1.62 0.53c2.74-35.52-0.58-62.14-10.18-61.81z" style="color:#000000" fill-rule="evenodd"/>
      <g id="g12225" fill-rule="evenodd" transform="matrix(.42926 0 .018452 .68663 518.2 24.913)">
        <path id="path12100" d="m1049 478.84l-142.98 1.13c-24.18 0-49.4 51.54-52.04 111.34-2.64 59.81 14.82 104.32 39 104.31l146.42-0.09c24.2 0 46-48.54 48.6-108.34 2.7-59.81-14.8-108.35-39-108.35z" style="color:#000000" fill="url(#radialGradient16455)"/>
        <path id="path12102" opacity=".14523" d="m1049 478.84l-143.14 1.13c-24.17 0-49.39 51.54-52.04 111.34-2.64 59.81 14.83 104.32 39 104.31l146.58-0.09c24.2 0 46-48.54 48.6-108.34 2.7-59.81-14.8-108.35-39-108.35z" style="color:#000000" fill="url(#radialGradient16457)"/>
        <path id="path12104" d="m1049 478.84l-142.98 1.13c-24.18 0-49.4 51.54-52.04 111.34-2.64 59.81 14.82 104.32 39 104.31l146.42-0.09c24.2 0 46-48.54 48.6-108.34 2.7-59.81-14.8-108.35-39-108.35z" style="color:#000000" fill="url(#radialGradient16459)"/>
      </g>
      <g id="g12205" fill-rule="evenodd" transform="matrix(.42926 0 .013472 .68663 521.89 24.913)">
        <path id="path12106" d="m1055.7 493.12c-0.8-0.01-1.5 0.06-2.4 0.22-18.8 3.79-32.4 50.16-32.1 101.41 0.4 50.79 12.9 87.81 30.1 83.63 19.1-4.63 32.1-49.62 32.1-100.41 0.6-48.41-11.4-84.59-27.7-84.85z" style="color:#000000" fill="url(#linearGradient16461)"/>
        <path id="path12108" d="m1063.6 508.88c5.8-0.37 8.7 13.53 8.7 27.74 0 1.97 0 3.9-0.2 5.76-6.7 5.84-13.3 12.58-18.7 16.48-0.4-3.62 0.1-10.19 0.2-19.48 0.1-14.15 1.5-29.98 10-30.5z" style="color:#000000" fill="url(#linearGradient16463)"/>
        <path id="path12110" d="m1053.4 558.91l13.6-11.93 4.7-0.9-16.6 16.56c-0.7-0.86-1.3-2.04-1.7-3.73z" style="color:#000000" fill="url(#linearGradient16465)"/>
        <path id="path12112" d="m1063.6 508.88c-4 0.24-6.4 3.9-7.9 9.18 5.3-0.02 1.8 11.1 2.9 11.19 5.3 0.43 9.2 3.98 9.2 13.37 0 1.43-0.2 2.8-0.6 4.1-0.4 1.25 1.7 0.61 3.8 0l-15.9 15.84c1.7 1.5 3.7 2.3 5.7 2.06 6.6-0.74 10.3-8.03 11-16.24 0-0.64 0-1.26-0.1-1.88v-0.03c0.4-3.09 0.6-6.4 0.6-9.85 0-14.21-2.9-28.11-8.7-27.74z" style="color:#000000" fill="url(#linearGradient16467)"/>
        <path id="path12114" d="m632 584.86a8.25 22 0 1 1 -16.5 0 8.25 22 0 1 1 16.5 0z" style="color:#000000" fill="url(#radialGradient16469)" transform="matrix(.99849 0 0 1.1039 426.44 -60.056)"/>
        <path id="path12116" d="m1071.6 569c-4.2 0.2-7.6 5.41-9.5 13.12 2.7-3.38 6.3-6.92 9.2-8.65 2.2-1.36 2.6 5.78-5.2 8.22 2 5.14 2.9 29.37-1.5 29.62-0.8 0.04-1.6-1.15-2.4-2.9 1.8 8.51 5.1 14.25 9 14.25 5.7 0 10.1-11.62 10.1-26.44s-3.6-26.82-9.1-27.22c-0.2-0.02-0.4-0.01-0.6 0z" style="color:#000000" fill="url(#linearGradient16471)"/>
        <path id="path12118" d="m1052.9 613.56c-2-0.01-3.5 1.81-4.6 4.82 3.1 4.34 5.7 14.99 8.5 20.59 5.9 12.13-0.5 19.02-10.2 17.59-0.3-0.04-0.6-0.14-0.9-0.28 0.8 8.1 3.2 13.44 9.1 14.1 4.3 0.47 7.3-8.41 8.5-28.5 1.2-19.62-4.4-27.4-9.8-28.26-0.2-0.02-0.4-0.06-0.6-0.06z" style="color:#000000" fill="url(#linearGradient16473)"/>
        <path id="path12120" d="m1034.4 583.19c-2.8-0.07-5.8 3.68-8.2 9.25 0.1-0.07 0.2-0.17 0.4-0.22 8-4.24 7.7 13.31 7.7 23.4 0 6.66-1 17.46-2.9 24.07 0.7 0.32 1.4 0.48 2.1 0.43 7-0.45 11.2-8.98 9.1-28.9-1.4-14.09-2-27.88-8.2-28.03z" style="color:#000000" fill="url(#linearGradient16475)"/>
        <path id="path12122" d="m1039.6 515.53c-0.2 0.02-0.4 0.05-0.6 0.09-1.2 0.23-2.2 1.06-3.1 2.35 7.6 0.37 3.7 13.98 3 25.25-0.8 12.72-2.6 20.68-5.5 23.06 1.6 3.43 3.5 5.6 5.2 6 4.1 0.96 9.1-13.88 9.1-29.47 0-15.1-1.8-27.74-8.1-27.28z" style="color:#000000" fill="url(#linearGradient16477)"/>
        <path id="path12124" d="m1071.8 573.31c-0.1 0.02-0.3 0.07-0.4 0.16-2.9 1.73-6.5 5.27-9.1 8.65-1 3.85-1.6 8.34-1.6 13.13 0 4.82 0.6 9.3 1.6 13.16 0.8 1.75 1.7 2.94 2.4 2.9 4.4-0.25 3.5-24.48 1.6-29.62 7.3-2.28 7.4-8.7 5.5-8.38z" style="color:#000000" fill="url(#linearGradient16479)"/>
        <path id="path12126" d="m1048.3 618.38c-1.9 5.15-2.7 13.85-2.9 23.12-0.2 5.53-0.2 10.52 0.3 14.78 0.3 0.14 0.6 0.24 0.9 0.28 9.7 1.43 16.1-5.46 10.2-17.59-2.8-5.6-5.4-16.25-8.5-20.59z" style="color:#000000" fill="url(#linearGradient16481)"/>
        <path id="path12128" d="m1028.6 591.56c-0.6 0.04-1.3 0.26-2 0.66-0.2 0.05-0.3 0.15-0.4 0.22-2.2 5.34-3.7 12.36-3.7 19.31 0 12.57 3.6 25.45 8.9 27.94 1.9-6.61 2.9-17.41 2.9-24.07 0-9.15 0.2-24.43-5.7-24.06z" style="color:#000000" fill="url(#linearGradient16483)"/>
        <path id="path12130" d="m1035.9 517.97c-3.1 4.32-5 14.02-6 25.53-0.8 9.38 1 17.55 3.5 22.78 2.9-2.38 4.7-10.34 5.5-23.06 0.7-11.27 4.6-24.88-3-25.25z" style="color:#000000" fill="url(#linearGradient16485)"/>
        <path id="path12132" opacity=".3" d="m1046.8 527.78c-1.3 2.81-2.6 8.53-3.3 15.13-1 9.36-0.3 16.96 1.4 16.97 0.3 0 0.7-0.27 1-0.72 1.1-4.82 1.8-10.54 1.8-16.35 0-5.51-0.3-10.69-0.9-15.03z" style="color:#000000" fill="url(#linearGradient16487)"/>
        <path id="path12134" opacity=".3" d="m1039.1 609.12c-1.8 0-2.3 12.77-1 28.5v0.6c2.8-2.38 4.6-7.08 5-14.47-1.3-8.69-2.8-14.63-4-14.63z" style="color:#000000" fill="url(#linearGradient16489)"/>
        <path id="path12136" opacity=".4" d="m1055.8 616.38c-3.3 0 0 8.98 7.7 21.68 0.2-9.86-1.6-16.28-4.1-20.06-1.5-1.06-2.7-1.62-3.6-1.62z" style="color:#000000" fill="url(#linearGradient16491)"/>
        <path id="path12138" d="m1042.3 572.53c-0.8 3.77-1.3 8.23-1.3 13.03 0 5.37 0.6 10.32 1.6 14.35 2.2-2.08 3.7-7.33 3.7-13.53 0-6.48-1.6-11.99-4-13.85z" style="color:#000000" fill="url(#linearGradient16493)"/>
        <path id="path12140" d="m1055.6 494.16c-11.8 2.79-16.5 15.96-20.7 26.09-2.8 8.18-4.9 16.52-6.6 24.97 1.6-7.6 3.6-15.1 6.1-22.47 4.2-10.13 8.9-23.3 20.7-26.09 8.5-0.38 13.3 8.68 16.4 15.28 11.3 27.79 11.2 58.76 9.7 88.4-0.9 9.84-2 19.88-3.9 29.69 2.2-10.61 3.4-21.51 4.4-32.19 1.5-29.64 1.6-60.61-9.7-88.4-3.1-6.6-7.9-15.66-16.4-15.28z" style="color:#000000" fill="#fff"/>
      </g>
      <g id="g12182" fill-rule="evenodd" transform="translate(147.74 -111.43)">
        <path id="path4995" d="m617.66 478.84l-52.12 1.13c-24.18 0-49.4 51.54-52.04 111.34-2.64 59.81 14.82 104.32 39 104.31l55.59-0.09c24.18 0 45.95-48.54 48.6-108.34 2.64-59.81-14.86-108.35-39.03-108.35z" style="color:#000000" fill="url(#radialGradient16495)"/>
        <path id="path11299" opacity=".14523" d="m617.66 478.84l-52.12 1.13c-24.18 0-49.4 51.54-52.04 111.34-2.64 59.81 14.82 104.32 39 104.31l55.59-0.09c24.18 0 45.95-48.54 48.6-108.34 2.64-59.81-14.86-108.35-39.03-108.35z" style="color:#000000" fill="url(#radialGradient16497)"/>
        <path id="path11295" d="m617.66 478.84l-52.12 1.13c-24.18 0-49.4 51.54-52.04 111.34-2.64 59.81 14.82 104.32 39 104.31l55.59-0.09c24.18 0 45.95-48.54 48.6-108.34 2.64-59.81-14.86-108.35-39.03-108.35z" style="color:#000000" fill="url(#radialGradient16499)"/>
        <path id="path16305" d="m622.41 495.12c-0.8-0.01-1.59 0.06-2.41 0.22-18.85 3.79-32.48 50.16-32.09 101.41 0.38 50.79 12.81 87.81 30.09 83.63 19.1-4.63 32.11-49.62 32.09-100.41 0.53-48.41-11.47-84.59-27.68-84.85z" style="color:#000000" fill="url(#linearGradient16501)"/>
        <path id="path7020" d="m624.41 493.12c-0.8-0.01-1.59 0.06-2.41 0.22-18.85 3.79-32.48 50.16-32.09 101.41 0.38 50.79 12.81 87.81 30.09 83.63 19.1-4.63 32.11-49.62 32.09-100.41 0.53-48.41-11.47-84.59-27.68-84.85z" style="color:#000000" fill="url(#linearGradient16503)"/>
        <path id="path5034" d="m632.25 508.88c5.78-0.37 8.75 13.53 8.75 27.74 0 1.97-0.06 3.9-0.19 5.76-6.7 5.84-13.36 12.58-18.72 16.48-0.39-3.62 0.1-10.19 0.16-19.48 0.08-14.15 1.56-29.98 10-30.5z" style="color:#000000" fill="url(#linearGradient16505)"/>
        <path id="rect6006" d="m622.07 558.91l13.64-11.93 4.66-0.9-16.62 16.56c-0.71-0.86-1.3-2.04-1.68-3.73z" style="color:#000000" fill="url(#linearGradient16507)"/>
        <path id="path5020" d="m632.25 508.88c-3.99 0.24-6.41 3.9-7.87 9.18 5.32-0.02 1.77 11.1 2.84 11.19 5.35 0.43 9.28 3.98 9.28 13.37 0 1.43-0.24 2.8-0.66 4.1-0.4 1.25 1.72 0.61 3.82 0l-15.85 15.84c1.67 1.5 3.62 2.3 5.69 2.06 6.57-0.74 10.25-8.03 11-16.24 0-0.64-0.04-1.26-0.09-1.88 0-0.01-0.01-0.02 0-0.03 0.39-3.09 0.59-6.4 0.59-9.85 0-14.21-2.97-28.11-8.75-27.74z" style="color:#000000" fill="url(#linearGradient16509)"/>
        <path id="path7002" d="m632 584.86a8.25 22 0 1 1 -16.5 0 8.25 22 0 1 1 16.5 0z" style="color:#000000" fill="url(#radialGradient16469)" transform="matrix(.99849 0 0 1.1039 -4.891 -60.056)"/>
        <path id="path7052" d="m640.22 569c-4.12 0.2-7.59 5.41-9.41 13.12 2.65-3.38 6.28-6.92 9.13-8.65 2.23-1.36 2.64 5.78-5.13 8.22 1.91 5.14 2.86 29.37-1.59 29.62-0.72 0.04-1.57-1.15-2.38-2.9 1.78 8.51 5.1 14.25 9.07 14.25 5.65 0 10.06-11.62 10.06-26.44s-3.58-26.82-9.13-27.22c-0.2-0.02-0.42-0.01-0.62 0z" style="color:#000000" fill="url(#linearGradient16513)"/>
        <path id="path7073" d="m621.59 613.56c-2.02-0.01-3.54 1.81-4.65 4.82 3.14 4.34 5.75 14.99 8.5 20.59 5.94 12.13-0.49 19.02-10.16 17.59-0.3-0.04-0.62-0.14-0.94-0.28 0.82 8.1 3.19 13.44 9.16 14.1 4.31 0.47 7.28-8.41 8.5-28.5 1.19-19.62-4.42-27.4-9.88-28.26-0.18-0.02-0.35-0.06-0.53-0.06z" style="color:#000000" fill="url(#linearGradient16515)"/>
        <path id="path7078" d="m603.06 583.19c-2.82-0.07-5.85 3.68-8.15 9.25 0.1-0.07 0.2-0.17 0.31-0.22 8.02-4.24 7.78 13.31 7.78 23.4 0 6.66-0.99 17.46-2.94 24.07 0.69 0.32 1.39 0.48 2.13 0.43 6.94-0.45 11.15-8.98 9.09-28.9-1.45-14.09-1.97-27.88-8.22-28.03z" style="color:#000000" fill="url(#linearGradient16517)"/>
        <path id="path7081" d="m608.25 515.53c-0.2 0.02-0.41 0.05-0.63 0.09-1.14 0.23-2.17 1.06-3.09 2.35 7.68 0.37 3.72 13.98 3.03 25.25-0.77 12.72-2.57 20.68-5.53 23.06 1.63 3.43 3.54 5.6 5.25 6 4.08 0.96 9.06-13.88 9.06-29.47 0-15.1-1.78-27.74-8.09-27.28z" style="color:#000000" fill="url(#linearGradient16519)"/>
        <path id="path7125" d="m640.47 573.31c-0.13 0.02-0.27 0.07-0.41 0.16-2.85 1.73-6.47 5.27-9.12 8.65-1 3.85-1.56 8.34-1.56 13.13 0 4.82 0.59 9.3 1.59 13.16 0.81 1.75 1.66 2.94 2.37 2.9 4.46-0.25 3.5-24.48 1.6-29.62 7.28-2.28 7.39-8.7 5.53-8.38z" style="color:#000000" fill="url(#linearGradient16521)"/>
        <path id="path7151" d="m616.94 618.38c-1.91 5.15-2.68 13.85-2.91 23.12-0.14 5.53-0.12 10.52 0.31 14.78 0.32 0.14 0.64 0.24 0.94 0.28 9.67 1.43 16.1-5.46 10.16-17.59-2.75-5.6-5.36-16.25-8.5-20.59z" style="color:#000000" fill="url(#linearGradient16523)"/>
        <path id="path7164" d="m597.25 591.56c-0.61 0.04-1.28 0.26-2.03 0.66-0.11 0.05-0.21 0.15-0.31 0.22-2.22 5.34-3.75 12.36-3.75 19.31 0 12.57 3.62 25.45 8.9 27.94 1.95-6.61 2.94-17.41 2.94-24.07 0-9.15 0.18-24.43-5.75-24.06z" style="color:#000000" fill="url(#linearGradient16525)"/>
        <path id="path7330" d="m604.53 517.97c-3.08 4.32-4.98 14.02-5.97 25.53-0.8 9.38 0.99 17.55 3.47 22.78 2.96-2.38 4.76-10.34 5.53-23.06 0.69-11.27 4.65-24.88-3.03-25.25z" style="color:#000000" fill="url(#linearGradient16527)"/>
        <path id="path9040" opacity=".3" d="m615.5 527.78c-1.32 2.81-2.63 8.53-3.31 15.13-0.98 9.36-0.35 16.96 1.4 16.97 0.32 0 0.67-0.27 1-0.72 1.08-4.82 1.75-10.54 1.75-16.35 0-5.51-0.23-10.69-0.84-15.03z" style="color:#000000" fill="url(#linearGradient16529)"/>
        <path id="path10036" opacity=".3" d="m607.75 609.12c-1.79 0-2.24 12.77-1 28.5 0.02 0.21 0.05 0.4 0.06 0.6 2.72-2.38 4.51-7.08 4.91-14.47-1.24-8.69-2.75-14.63-3.97-14.63z" style="color:#000000" fill="url(#linearGradient16531)"/>
        <path id="path10049" opacity=".4" d="m624.5 616.38c-3.37 0 0 8.98 7.66 21.68 0.16-9.86-1.58-16.28-4.07-20.06-1.5-1.06-2.74-1.62-3.59-1.62z" style="color:#000000" fill="url(#linearGradient16533)"/>
        <path id="path10281" d="m611 572.53c-0.82 3.77-1.31 8.23-1.31 13.03 0 5.37 0.59 10.32 1.59 14.35 2.17-2.08 3.72-7.33 3.72-13.53 0-6.48-1.68-11.99-4-13.85z" style="color:#000000" fill="url(#linearGradient16535)"/>
        <path id="path10294" d="m624.31 494.16c-11.89 2.79-16.59 15.96-20.78 26.09-2.72 8.18-4.9 16.52-6.53 24.97 1.56-7.6 3.57-15.1 6.03-22.47 4.19-10.13 8.89-23.3 20.78-26.09 8.49-0.38 13.24 8.68 16.38 15.28 11.27 27.79 11.22 58.76 9.65 88.4-0.91 9.84-1.99 19.88-3.87 29.69 2.2-10.61 3.38-21.51 4.37-32.19 1.57-29.64 1.62-60.61-9.65-88.4-3.14-6.6-7.89-15.66-16.38-15.28z" style="color:#000000" fill="#fff"/>
      </g>
      <path id="path7367" d="m288.32 365.48l-50.85-1.86c-23.59-1.34-48.38 44.88-51.17 99.99s14.09 97.21 37.68 98.55l54.24 3.01c23.58 1.34 45-42.3 47.79-97.41s-14.1-100.93-37.69-102.28z" style="color:#000000" fill="url(#radialGradient16537)" fill-rule="evenodd"/>
      <path id="rect5741" d="m677.24 210.42c-26.69-0.09-55.9 0.48-84.6 2.34-91.38 5.91-153.6 8.9-299.09 94.56-98.01-0.31-159.87 86.8-179.16 126-1.44 20.99 0.96 43.26 7.6 66.94-0.19 14.24 5.26 23.97 9.59 34.59 20.07 3.66 39.44 5.96 58.56 7.72l6.44-0.84c77.19 8.22 156.77 12.42 236.78 15.94l15.19 3.34c39.86 1.11 79.5 3.4 118.4 1.87 63.53-2.49 101.69-5.8 137.22-11.93 2.59-0.45 9.53-20.82 9.53-20.82 3.83-51.36 20.87-181.81 57.6-183.25 33.84-1.32 41.37 98.65 25.22 174.25 51.15-16.13 101.02-36.18 153.87-47.25 0 0 10.87-86.56 15.94-105.09 0.98-3.59 7.5-26.9 14.19-29.72 10.35-4.36 15.76-2 13.93 57.97l3.47 2.94c-2.85-26.88 7.08-31.46-8.97-74.78-10.63-28.74-28.91-39.69-33.09-40.35-13.03-2.04-55.16-4.11-65.47-4.59-1.77-3.28-5.72-6.38-10.84-8.09-1.12-0.38-2.24-0.67-3.35-0.88-36.78-31.71-71.26-54.37-91.53-57-2.19-0.29-48.73-3.7-107.43-3.87z" style="color:#000000" fill="#fdca01" fill-rule="evenodd"/>
      <path id="rect12277" d="m667.11 210.42c-23.86 0.08-49.36 0.72-74.47 2.34-91.38 5.91-153.6 8.9-299.09 94.56-1.64 0-3.26 0.02-4.88 0.06 4.8 0.32 9.54 0.64 14.63 1.1l23.53-1.78c129.75-2.15 262.27-9.83 389.25-6.44 11.18 0.71 20.02 0.46 36.41 3.34l86.96-41.25 36.54 8.75c-36.71-31.61-71.09-54.18-91.32-56.81-2.19-0.29-48.73-3.7-107.43-3.87-3.34-0.01-6.72-0.02-10.13 0z" style="color:#000000" fill="url(#linearGradient16539)" fill-rule="evenodd"/>
      <path id="path11867" d="m219.33 517.6c3.78 6.31 14.6 5.57 23.41 6.85 6.63 2.93 4.88 2.97-1.66 4.59 63.96 4.24 127.35 8.48 190.37 12.72l6.29 7.31c-3.29-7.95-4.15-14.47-2.72-19.59l0.09-0.06c-71.93-2.78-143.85-5.76-215.78-11.82z" style="color:#000000" fill="url(#linearGradient16541)" fill-rule="evenodd"/>
      <path id="rect8273" d="m114.33 434.45c-1.28 20.65 1.13 42.55 7.66 65.81-0.19 14.24 5.26 23.97 9.59 34.59 20.07 3.66 39.44 5.96 58.56 7.72l6.44-0.84c77.19 8.22 156.77 12.42 236.78 15.94l15.19 3.34c39.86 1.11 79.5 3.4 118.4 1.87 16.75-0.65 31.69-1.38 45.32-2.18l5.37-19.41c-11.62-31.52-24.5-62.82-41.37-93.5l-0.69 0.66c-183.4 5.36-380.98-1.69-461.25-14zm23.41 81.5l68 0.5c76.66 6.87 153.33 10.04 230 13l164-0.5c-13.39 12.94-28.81 15.74-43.38 22.75-122.25 0.28-235-6.14-357.25-16.5l-66.19-10.13 4.82-9.12z" style="color:#000000" fill="url(#linearGradient16543)" fill-rule="evenodd"/>
      <path id="path4913" d="m137.74 515.95l-4.82 9.12 66.19 10.13c122.25 10.36 235 16.78 357.25 16.5 14.57-7.01 29.99-9.81 43.38-22.75l-164 0.5c-0.21-0.01-0.42-0.03-0.63-0.03l-0.09 0.06c-1.43 5.12-0.57 11.64 2.72 19.59l-6.29-7.31c-63.02-4.24-126.41-8.48-190.37-12.72 6.54-1.62 8.29-1.66 1.66-4.59-8.81-1.28-19.63-0.54-23.41-6.85-4.53-0.38-9.06-0.75-13.59-1.15l-68-0.5z" style="color:#000000" fill="url(#linearGradient16545)" fill-rule="evenodd"/>
      <path id="path6199" opacity=".7" style="color:#000000" d="m189.74 397.18c39.55-35.48 84.63-60.17 143-84.25" stroke="#986601" fill="none"/>
      <path id="rect6647" d="m683.66 300.51c-40.53 0.06-83.45 4.74-123.51 10.14l-232.68 3.12c-13.3-3.92-25.47-5.58-37.13-6.25-96.3 1.42-157.12 87.16-176.22 125.97-0.02 0.37-0.04 0.75-0.06 1.13 80.28 12.31 277.85 19.36 461.25 14 56.28-61.31 120.36-139.35 196.81-140-28.52-8.77-56.94-8.17-88.46-8.11z" style="color:#000000" fill="url(#radialGradient16547)" fill-rule="evenodd"/>
      <path id="path6193" opacity=".5" style="color:#000000" d="m188.74 397.43c38.31-35.07 82.9-60.18 142-84.5" stroke="url(#linearGradient16549)" fill="none"/>
      <path id="path4925" opacity=".86" style="color:#000000" d="m163.3 414.93c105.63 9.66 231.45 8.44 348.24 6.5" stroke="url(#linearGradient16551)" fill="none"/>
      <path id="path10364" d="m750.24 303.37c6.79-24.26 15.59-81.17 37.62-81.1 26.18 0.09 47.93 19.35 85.6 48.1-12.12 0.16-42.95-10.65-52.67 6.86-5.39 9.7-4.12 23.49-3.68 34.33-9.35 1.1-27.01 4.74-30.5 2.68-4.57-2.7-26.77-10.77-36.37-10.87z"/>
      <path id="path6785" d="m630.2 214.88c-62.51 0.71-119.78 5.01-174.51 18.52-30.49 7.53-98.69 41.18-153.36 71.08-11.73 6.3 13.95 6.57 21.06 8.69 12.15 1.59 33.56-0.31 56-0.72 54.01-0.99 119.66-0.93 176.63-0.63 59.45-11.54 104.12-11.24 165.5-11.06 8.93-27.79 20.99-56.38 34-81.72-20.57-2.97-41.53-4.05-62.53-4.38-21-0.32-42.05 0.13-62.79 0.22z"/>
      <path id="rect16291" opacity=".8" style="color:#000000" d="m625.74 244.08h106.77l-9.9 28.64-86.26 2.47-10.61-31.11z" fill-rule="evenodd" fill="url(#linearGradient16553)"/>
      <path id="path8247" d="m744.54 254.57c-1.49-0.06-3.07 0.31-4.5 1.19-12.09 0.34-24.21 0.64-36.09 3.16-37.79 7.26-73.67 21.59-110.44 32.53-4.42 1.95-12.21 2.86-14.66 5.72 6.55-1.05 9.87 3.83 15.22 6.43 1.55 0.62 3.13 1.11 4.75 1.47 9.59 0.71-12.22-3.03-2.28-5.15 19.04-6.06 38.13-11.94 57.12-18.16 22.35-7.84 45.38-14.13 69-16.53 4.74 0.42 12.09-2.63 15.25 0.9-3.12 11.51-7.55 22.61-11.43 33.88-9 0.36-18.01 0.73-27 1.09 9.01-0.03 18.1 0.74 27.06-0.37 4.17-7.52 6.02-16.1 9.75-23.85 1.67-3.53 6.09-14.61 10.19-9.34-4.83 19.27-6.54 26.32-6.53 26.88 0.47-0.52 8.47-29.12 10.59-30.19 2.24-5.48-1.54-9.48-6-9.66zm-191.97 50.22c-1.69 0.1-3.45 0.14-5 0.91-0.97 0.44 0.03 1.38 0.5 1.81 0.99 0.77 2.08 1.56 2.66 2.72 0.43 0.58 0 2.34 1.18 1.84 1.22-0.25 2.48 0.07 3.66 0.38 0.79 0.23 1.58 0.47 2.38 0.68 0.83 0.29 1.75 0.42 2.56-0.03 2.75-1.13 5.34-2.63 7.81-4.28 0.58-0.49 1.47-0.87 1.66-1.62-0.93-0.36-1.91-0.57-2.88-0.82-4.75-1.08-9.65-1.68-14.53-1.59zm173.44 4.94c-2.4 0.25-13.26 3.8-18.63 5.69-53.24 0.81-107.07 4.55-158.22 20.34-20.05 10.92-6.19-5.23 2.32-14.09 0.1-9.42-15.96 4.19-17.47 9.53-18.35 7.02-40.72 5.46-60.56 9.53-95.8 16.66-193.81 26.75-285.16 62.12-17.23 6.1-30.88 14.48-44.66 26.41-1.7 1.9 4.46 1.39 3.32 0.47 4.34-6.19 38.59-13.7 26.53-13.69 10.36-7.62 31.82-10.74 46.25-16.69 98.02-28.95 199.9-40.58 300.65-55.9 10.56 0.78 14.45-11.22 22-16.47-1.47 6.68-24.42 33.2-30.37 49.78 9.88-11.76 20.16-35.04 41.53-35.78 39.66-11.36 80.72-18.91 121.97-20.72 14.33-1.7 29.85 1.51 42.72-6.34 7.64-3.31 9.22-4.34 7.78-4.19zm12.19 2.15c-4.47 1.31-7.83 1.92-15.04 4.38-3.72 1.27-8.7 3.54-7.96 5.06 3 0.58 7.13-2.49 9-3.12 4.4-1.25 11.42-4.78 14-6.32z" fill="#fff"/>
      <path id="rect8270" d="m188.39 467.04c84.53 8.98 229.65 13.08 256.92 5.87l-1.53 12.34c-81.14-2.08-162.2-4.09-246.98-9.8l-8.41-8.41z" style="color:#000000" fill="#fff" fill-rule="evenodd"/>
      <path id="rect8267" d="m118.94 442.75c33.44 9.49 80.43 22.82 91.12 32.36-0.24 13.5-0.28 27.32 0 41.26-4.35 4.26-8.41 8.45-14.44 13.13-23.84 0.28-45-2.11-64.88-5.78-4.1-6.74-4.67-15.05-4.87-23.52-6.39-18.86-6.52-38.16-6.93-57.45z" style="color:#000000" fill="#666" fill-rule="evenodd"/>
      <path id="rect8294" d="m713.27 531.38c-31.51 4.86-63.41 8.12-95.78 9.47 0.05 0.15 0.1 0.29 0.15 0.44l-5.37 19.41c38.06-2.26 65.75-5.24 91.9-9.75 2.33-0.41 7.97-16.32 9.1-19.57zm-101.41 29.35c-1.02 0.06-2.09 0.09-3.12 0.15v0.04c1.07-0.07 2.06-0.13 3.12-0.19z" style="color:#000000" fill="url(#linearGradient16555)" fill-rule="evenodd"/>
      <path id="path8237" d="m118.94 442.75c33.44 9.49 80.43 22.82 91.12 32.36-0.24 13.5-0.28 27.32 0 41.26-4.35 4.26-8.41 8.45-14.44 13.13-23.84 0.28-45-2.11-64.88-5.78-4.1-6.74-4.67-15.05-4.87-23.52-6.39-18.86-6.52-38.16-6.93-57.45z" style="color:#000000" fill="url(#pattern16303)" fill-rule="evenodd"/>
      <g id="g9291" transform="translate(147.74 -111.43)">
        <path id="rect8264" d="m274.64 590.14c1-3.98 141.45-24.39 147.77-21.71 3.62 1.54 31.21 67.42 30.59 71.2-0.34 2.03-31 17.24-41.32 17.63-10.01 0.37-100.05-1.81-105.05-2.1-12.42-0.74-15.67-5.89-18.91-14.13-1.87-4.72-13.59-48.85-13.08-50.89z" style="color:#000000" fill="#666" fill-rule="evenodd"/>
        <path id="path5943" d="m274.64 590.14c1-3.98 141.45-24.39 147.77-21.71 3.62 1.54 31.21 67.42 30.59 71.2-0.34 2.03-31 17.24-41.32 17.63-10.01 0.37-100.05-1.81-105.05-2.1-12.42-0.74-15.67-5.89-18.91-14.13-1.87-4.72-13.59-48.85-13.08-50.89z" style="color:#000000" fill="none"/>
        <path id="path8235" d="m274.64 590.14c1-3.98 141.45-24.39 147.77-21.71 3.62 1.54 31.21 67.42 30.59 71.2-0.34 2.03-31 17.24-41.32 17.63-10.01 0.37-100.05-1.81-105.05-2.1-12.42-0.74-15.67-5.89-18.91-14.13-1.87-4.72-13.59-48.85-13.08-50.89z" style="color:#000000" fill="url(#pattern9238)" fill-rule="evenodd"/>
        <path id="path9240" d="m274.64 590.14c1-3.98 141.45-24.39 147.77-21.71 3.62 1.54 31.21 67.42 30.59 71.2-0.34 2.03-31 17.24-41.32 17.63-10.01 0.37-100.05-1.81-105.05-2.1-12.42-0.74-15.67-5.89-18.91-14.13-1.87-4.72-13.59-48.85-13.08-50.89z" style="color:#000000" fill="url(#linearGradient16557)" fill-rule="evenodd"/>
        <path id="rect8239" opacity=".6" style="color:#000000" d="m421.09 568.25c-3.95 25.21-8.22 49.14-8.53 88.94 11.09-1.15 40.11-15.59 40.44-17.57 0.63-3.78-26.97-69.64-30.59-71.18-0.24-0.1-0.72-0.15-1.32-0.19z" fill-rule="evenodd" fill="url(#linearGradient16559)"/>
        <path id="path9287" d="m274.64 590.14c1-3.98 141.45-24.39 147.77-21.71 3.62 1.54 31.21 67.42 30.59 71.2-0.34 2.03-31 17.24-41.32 17.63-10.01 0.37-100.05-1.81-105.05-2.1-12.42-0.74-15.67-5.89-18.91-14.13-1.87-4.72-13.59-48.85-13.08-50.89z" style="color:#000000" fill="url(#linearGradient16561)" fill-rule="evenodd"/>
      </g>
      <path id="path9299" opacity=".9" style="color:#000000" d="m118.95 442.76c0.41 19.28 0.51 38.58 6.91 57.44 0.2 8.47 0.78 16.79 4.88 23.53 19.88 3.67 41.04 6.06 64.87 5.78 0.7-0.54 1.38-1.1 2.03-1.63-3.49-19.54-3.96-39.84-2.12-60.71-19.35-8.17-51.69-17.35-76.57-24.41z" fill-rule="evenodd" fill="url(#linearGradient16563)"/>
      <path id="path10282" d="m118.94 442.75c33.44 9.49 80.43 22.82 91.12 32.36-0.24 13.5-0.28 27.32 0 41.26-4.35 4.26-8.41 8.45-14.44 13.13-23.84 0.28-45-2.11-64.88-5.78-4.1-6.74-4.67-15.05-4.87-23.52-6.39-18.86-6.52-38.16-6.93-57.45z" style="color:#000000" fill="url(#linearGradient16565)" fill-rule="evenodd"/>
      <g id="g5950" fill-rule="evenodd" transform="translate(147.74 -111.43)">
        <path id="rect8261" style="color:#000000" d="m69.628 438.31l6.677 3.28c-28.955 26.32-46.472 55.55-60.982 85.48l-34.554-4.8c24.417-33.12 51.698-62.98 88.859-83.96z"/>
        <path id="path7087" d="m69.628 438.31l6.677 3.28c-28.955 26.32-46.472 55.55-60.982 85.48l-34.554-4.8c24.417-33.12 51.698-62.98 88.859-83.96z" style="color:#000000" fill="url(#linearGradient16567)"/>
        <path id="rect4940" d="m72.781 439.88c-9.611 5.14-18.652 10.75-27.187 16.81-19.448 16.71-38.619 33.61-51.188 54.59l27.032 3.6c13.376-25.66 29.864-50.55 54.874-73.29l-3.531-1.71z" style="color:#000000" fill="url(#linearGradient16569)"/>
        <path id="path5926" d="m5.5116 500.13c-3.1224 5.41-1.0873 9.53 5.1564 9.53 0.731 0 1.471-0.08 2.25-0.19-0.461-0.32-0.875-0.7-1.25-1.15-1.491-1.79-2.1403-4.52-1.563-8.19h-4.5934zm5.0004 0l0.625 0.09c-0.563 3.5 0.113 5.9 1.375 7.41 0.57 0.68 1.266 1.18 2.062 1.53 1.431-0.32 2.902-0.77 4.375-1.37-0.242-0.17-0.47-0.35-0.687-0.54-1.657-1.43-2.449-3.71-1.782-6.71l0.969 0.21c-0.61 2.75 0.077 4.55 1.469 5.75 0.348 0.31 0.748 0.56 1.187 0.79 3.795-1.73 7.5-4.24 10.282-7.16h-19.875z" style="color:#000000" fill="url(#linearGradient16571)"/>
        <path id="path6910" d="m67.71 442.5c-1.172 0.08-2.478-0.04-3.521 0.57-4.951 1.33-6.445 3.59-8.811 5.7-2.342 3.32-2.84 7.87-1.216 11.6 0.397 0.95 0.91 1.84 1.518 2.65 0.588-1 2.071-1.9 2.103-2.94-1.654-2.92-1.48-6.75 0.394-9.52 2.421-3.73 7.136-5.5 11.41-4.8 0.962 0.13 1.959 0.77 2.567-0.33 0.424-0.56 1.686-1.27 1.586-1.73-1.907-0.79-3.968-1.21-6.03-1.2z" style="color:#000000" fill="url(#linearGradient16573)"/>
        <path id="path6917" d="m67.71 445.62c-4.186-0.05-8.48 2.3-10.25 6.25-1.241 2.67-1.051 5.95 0.472 8.47 4.251-4.93 8.733-9.66 13.431-14.16-1.18-0.38-2.417-0.56-3.653-0.56z" style="color:#000000" fill="url(#linearGradient16575)"/>
        <path id="path7011" d="m60.156 448.56c-9.913 3.1-17.626 7.91-22.25 14.69-8.461 4.7-13.424 12.98-12.875 25.44 3.265-12.97 4.636-16.52 11.344-22.85-2.501 4.7-3.694 10.21-3.313 16.6 6.653-19.5 8.648-22.06 27.094-33.88zm-32.25 23c-5.585 3.78-8.957 11.32-8.625 23.38 2.119-13.46 2.752-15.22 8.625-23.38z" style="color:#000000" fill="url(#linearGradient16577)"/>
      </g>
      <path id="rect4924" style="color:#000000" stroke="url(#linearGradient16579)" d="m320.99 394.81c5.8-0.89 11.3-0.64 16.25 1.5-6.06 8.07-13.93 11.34-20.5 13 0.07-4.15-0.82-8.79 4.25-14.5z"/>
      <path id="path7903" opacity=".45" style="color:#000000" d="m730.99 376.98c-0.62 1.29-1.22 2.59-1.85 3.87l-126.06 38.16c-9.06 9.88-17.93 19.7-26.59 29.16 16.69 30.41 29.47 61.45 41 92.68 29.91-1.25 59.4-4.15 88.56-8.4-0.63-6.1-1.03-12.38-1.19-18.78-0.93-38.19 10.26-97.27 26.13-136.69z" fill-rule="evenodd" fill="url(#radialGradient16581)"/>
      <path id="path7917" opacity=".5" style="color:#000000" d="m602.95 419.59l128.69-39.95 9.55 3.18" stroke="url(#linearGradient16583)" stroke-linecap="round" fill="none"/>
      <path id="path10102" d="m750.5 303.49c6.78-24.26 15.59-81.18 37.61-81.1 26.18 0.09 47.93 19.34 85.6 48.1-12.12 0.16-44.72-11.01-54.44 6.5-5.38 9.7-2.35 23.85-1.91 34.68-9.34 1.11-27.01 4.75-30.49 2.69-4.58-2.71-26.77-10.78-36.37-10.87z"/>
      <path id="path10104" opacity=".6805" style="color:#000000" d="m767.18 308.42c-62 3.5-115.8 57.16-163.91 109.66l126.06-38.16c11-22.63 19.94-43.25 44.56-47.72l-0.03-21.59c-2.15-0.94-4.37-1.66-6.68-2.19z" fill-rule="evenodd" fill="url(#radialGradient16585)"/>
      <g id="g9895" fill-rule="evenodd" transform="translate(147.93 -111.28)">
        <path id="path10109" d="m548.01 501.88l35-11.31-3.89 15.2-18.38 3.18-12.73-7.07z" style="color:#000000" fill="#980101"/>
        <path id="path9883" d="m553 502.38c5.13 4.06 10.76 5.21 16.96 2.94 8.03 1.11 9.08-5.35 10.2-11.73-9.06 2.93-18.11 5.86-27.16 8.79z" style="color:#000000" fill="url(#linearGradient16587)"/>
      </g>
      <path id="rect9899" opacity=".82573" style="color:#000000" d="m841.55 267.12c-9.38 0.04-18.03 2.22-22.28 9.88-0.28 0.5-0.52 1.01-0.75 1.53-0.03 0.07-0.06 0.15-0.09 0.22-0.21 0.48-0.42 0.97-0.6 1.47-0.02 0.06-0.04 0.12-0.06 0.19-0.2 0.59-0.37 1.17-0.53 1.78s-0.29 1.24-0.41 1.87c28.06 0.15 61.67-1.8 77.47 6.66-0.58-3.17-2-6.91-3.53-10.31-1.91-4.26-6.64-6.32-11.03-8.1-3.41-0.87-5.33-1.72-6.13-1.81h-0.12c-0.23 0-0.48-0.02-0.72-0.03h-0.25c-7.1-0.27-19.58-3.39-30.97-3.35z" fill-rule="evenodd" fill="url(#linearGradient16589)"/>
      <path id="path10113" d="m832.37 285.89c32.9-1.18 13.53 14.54 59.38 9.06-21.83 16.56-69.07-11.77-67.78 24.93-4.13-40.64-8.07-33.39 8.4-33.99zm-9.98-10.79c7.23-4.76 16.94-4.31 25.2-3.45 5.33 0.55 15.34 1.09 20.71 1.37-9.43 1.93-20.93 0.95-27.91 0.51-6.28-0.39-12.07-0.63-18 1.57z" fill="#fff"/>
      <path id="rect9941" d="m890.77 280.41c1.53 3.4 2.95 7.14 3.53 10.31l-0.12-0.06c0.03 0.3 0.02 0.61 0.03 0.93-1.54 16.38-31.88 12.89-62.5 15.5l-0.78 21.75-20.03 6.35 2.12 3.9c98-25.32 119.35-51.16 146.88-52.5-1.71-0.95-3.04-1.46-3.85-1.59-12.53-1.97-51.37-3.92-63.53-4.5l-1.75-0.09z" style="color:#000000" fill="url(#radialGradient16591)" fill-rule="evenodd"/>
      <path id="rect9958" d="m959.89 286.6c-27.53 1.34-48.87 27.18-146.87 52.5l-2.13-3.9c-8.43-5.85-15.6-8.85-18.47-9.88-3.25 0.92-6.8 9.21-10.75 8.25 0.85 0.44 1.67 0.93 2.47 1.44 34.92 22.13 29.26 109.16 25.63 163.78l144.12-50.16c3.62-27.07 9.33-67.63 12.63-79.68 0.98-3.59 7.5-26.91 14.18-29.72 10.36-4.37 15.77-2.01 13.94 57.97l3.47 2.93c-2.85-26.88 7.09-31.46-8.97-74.78-8.58-23.19-22.14-34.78-29.25-38.75zm2.38 40.72c-4.57 1.9-10.44 4.8-15.22 5.85-0.86 33.37-6.68 59.46-18.47 84.87 12.38-32.74 12.24-57.2 15.47-83.81l-0.13 0.06c0.01-0.11 0.02-0.23 0.03-0.34l-25.09 9c-1.24 13.08-4.36 26.18-6.87 38.84 1.83-12.46 5.26-25.67 5-38.12l-1.41 0.53c-1.05 15.36-4.39 29.57-7.38 43.87 2.28-14.19 6.05-28.78 5.79-43.19-1.26 0.18-2.49 0.36-3.72 0.57-0.16 0.02-0.25-2.62-0.5-2.57-0.23 0.05-0.61 2.79-0.75 2.82-0.87 0.15-1.37 0.21-2.22 0.37-0.23 0.05-0.37-1.76-0.6-1.72-0.26 0.05-0.61 1.98-0.87 2.03-11.19 2.26-21.68 5.41-33.09 6.75 10.92-3.58 21.86-6.63 33.12-10.46-0.33-0.33-1.64-8.43-0.81-8.91-0.19 0.89 1.88 8.35 3.25 8.16 17.85-5.54 35.87-10.73 54.47-14.6zm-181.85 5.66c0.38 0.28 0.76 0.45 1.13 0.56-0.37-0.19-0.75-0.38-1.13-0.56z" style="color:#000000" fill="url(#radialGradient16593)" fill-rule="evenodd"/>
      <g id="g10143" fill-rule="evenodd" transform="translate(147.74 -111.43)">
        <path id="rect10129" d="m796.69 444.9l-22.14 8.43c-2.77 32.85-9.02 60.04-19.14 80.05-9.33 20.12-24.07 33.16-42.1 45.15l83.31-32.34-21.68 3-0.35-4.91c17.61-37.28 19.93-69.09 22.1-99.38z" style="color:#000000" fill="url(#radialGradient16595)"/>
        <path id="rect9989" style="color:#000000" d="m775.14 454.09l21.18-8.44c-3.76 30.99-2.92 59.01-22.63 100.63l-18.7-12.1c10.34-20.1 17.34-46.8 20.15-80.09z"/>
      </g>
      <path id="rect11822" d="m892.42 284.42c0.83 2.17 1.52 4.35 1.88 6.31-0.04-0.02-0.09-0.04-0.13-0.06 0.03 0.3 0.03 0.61 0.03 0.93-0.31 3.36-1.85 5.87-4.34 7.78l10.44 3.19c7.95-5.05 16.21-9.81 25.94-13.44-10.55-2.01-21.94-3.5-33.82-4.71z" style="color:#000000" fill="url(#radialGradient16597)" fill-rule="evenodd"/>
      <path id="path11834" d="m893.23 284.71c0.79 2.07 1.44 4.15 1.79 6.01-0.04-0.02-0.09-0.04-0.12-0.06 0.02 0.29 0.02 0.59 0.03 0.89-0.08 0.85-0.24 1.65-0.48 2.38 5.13 0.71 10.29 1.47 15.53 2.5 4.8-2.68 9.88-5.15 15.45-7.23-10.04-1.91-20.89-3.34-32.2-4.49z" style="color:#000000" fill-rule="evenodd"/>
      <path id="rect11845" d="m953.58 449.74c-51.03 18.61-103.07 34.52-153.81 53.88-0.95 5.93-2.04 11.79-3.25 17.5 51.15-16.14 101.02-36.18 153.87-47.25 0 0 1.39-10.69 3.19-24.13z" style="color:#000000" fill="url(#radialGradient16599)" fill-rule="evenodd"/>
      <path id="path11877" d="m917.45 466.43c-0.7 0.02-1.52 0.23-2.5 0.63-15.36 6.3-32.51 8.45-46.18 18.37-7.6 5.51-17 8.54-23.91 14.88-11.73 10.74-36.58 14.13-48.31 20.59-0.02 0.07-0.02 0.15-0.03 0.22 22.11-6.98 43.99-14.67 65.96-22.06 3.46-2.09 6.87-4.23 9.97-6.78 4.9-4.04 14.15-9.94 23.28-12.75 3.17-0.98 10.2-3.93 12.82-1.1 1.28 1.39 2.13 3.3 2.4 5.31 11.66-3.33 23.41-6.39 35.32-9-1.81-0.66-3.79-0.97-5.88-0.78-6.03 0.55-18.67 8.69-19.03-0.97-0.13-3.44-0.85-6.63-3.91-6.56z" style="color:#000000" fill="#fff" fill-rule="evenodd"/>
      <path id="path11882" d="m905.08 477.24c-3.15 0.02-7.17 1.62-9.35 2.29-9.13 2.81-18.38 8.71-23.28 12.75-3.1 2.56-6.54 4.69-10 6.78 16.07-5.41 32.19-10.65 48.5-15.32-0.27-2.01-1.12-3.92-2.4-5.31-0.82-0.88-2.04-1.19-3.47-1.19z" style="color:#000000" fill="url(#linearGradient16601)" fill-rule="evenodd"/>
      <path id="rect5068" d="m831.36 316.67l-0.44 12.18-0.47 0.16c1.73 2.02 4.58 3.57 6.97 7.44 5.11 8.26 12.46 15.94 14.75 12.4 3.04-4.69-3.02-19.29-5.59-21.72-5.26-4.97-11.74-8.89-15.22-10.46z" style="color:#000000" fill="url(#radialGradient16603)" fill-rule="evenodd"/>
      <path id="rect6054" d="m817.24 311.7c-4.89 0.58-11.96 1.81-18.13 2.59 6.52 4.09 14.04 7.98 21.78 12.78-4.37-5.9-2.9-10.37-3.65-15.37z" style="color:#000000" fill="url(#radialGradient16605)" fill-rule="evenodd"/>
      <path id="rect6062" d="m770.24 307.85l-0.54 0.07c22.22 9.59 26.36 24.66 55.66 22.59-1.76-1.31-3.33-2.63-4.81-3.94 0.11 0.17 0.22 0.33 0.34 0.5-7.74-4.8-15.26-8.69-21.78-12.78-5.68 0.72-10.59 1.05-12.25 0.06-2.32-1.37-9.17-4.1-16.62-6.5z" style="color:#000000" fill="url(#radialGradient16607)" fill-rule="evenodd"/>
      <path id="path6158" opacity=".5" style="color:#000000" d="m789.24 315.18c7.28 5.38 17.54 13.05 23.5 23.75 1.03 32.91 1.6 65.93 0 99.5" stroke="url(#linearGradient16609)" stroke-linecap="round" fill="none"/>
      <path id="path6073" d="m781.86 316.49c5.71 3.63 11.82 8.29 17.19 11.45-0.4-4.77-7.35-7.07-11.08-9.74-2.58-2.19-5.76-3.8-8.82-4.25 0.9 0.85 1.81 1.7 2.71 2.54z" style="color:#000000" fill="#eee" fill-rule="evenodd"/>
      <path id="path6088" d="m774.14 332.79c-0.34 0-0.68 0.02-1.03 0.03-1.36 0.07-2.74 0.26-4.12 0.56-0.02 0.01-0.05 0-0.07 0-20.91 6.21-29.37 25.5-39.59 46.54l-0.72 0.21c-3 9.21-4.85 19.36-5.12 30.07-0.25 9.56 0.79 18.77 2.81 27.28 9.33-46.47 23.92-89.77 45-90.6 23.38-0.91 34.18 46.53 33.31 100.88 3.85-11.69 6.25-25.23 6.63-39.59 0.04-1.69 0.04-3.35 0.03-5-2.47-29.01-9.18-54.35-24.41-66.22-3.95-2.67-8.22-4.15-12.72-4.16z" style="color:#000000" fill="url(#radialGradient16611)" fill-rule="evenodd"/>
      <path id="path6111" opacity=".60996" style="color:#000000" d="m775.89 346.7c-0.6 0.02-1.2 0.08-1.81 0.18-0.14 0.03-0.27 0.07-0.41 0.1 16.51 1.75 26.26 28.75 29.63 64.62 2.23 13.13 3.62 30.97 3.62 50.63v1.37c1.2-8.93 1.87-18.34 1.91-27.84 0.24-51.04-14.17-89.68-32.94-89.06z" fill-rule="evenodd" fill="#fff"/>
      <path id="path6128" d="m810.3 467.17c-2.24 13.97-4.11 28.52-10.41 36.4 2.55-0.97 5.1-1.92 7.66-2.87 1.35-9.91 3.57-21.41 2.75-33.53z" style="color:#000000" fill="url(#radialGradient16613)" fill-rule="evenodd"/>
      <path id="path6132" d="m812.42 427.26c0.41 24.95-1.26 50.62-2.65 71.53l57.65-20.06c-5.84-26.68-27.7-47.39-55-51.47z" style="color:#000000" fill="url(#radialGradient16615)" fill-rule="evenodd"/>
      <path id="path6149" opacity=".7" style="color:#000000" d="m799.74 503.31c52.98-17.24 102.9-38.2 153.5-52.25" fill-rule="evenodd" stroke="#986601" stroke-linecap="round" fill="url(#radialGradient16599)"/>
      <path id="path6176" d="m792.42 325.32c-2.64 0.74-5.47 6.37-8.56 7.94-0.48 0.24-0.95 0.36-1.44 0.37-0.24 0.01-0.5 0-0.75-0.06 0.85 0.44 1.67 0.93 2.47 1.44 0.19 0.12 0.38 0.25 0.56 0.41 21.52 14.27 27.32 53.58 27.75 94.34 1.6-16.46 0.58-63.84 1.79-68.56 2.11-8.29 1.75-15.98-0.57-22.28-0.22 0.05-0.43 0.12-0.65 0.18l-2.13-3.9c-8.43-5.85-15.6-8.85-18.47-9.88zm-12 7.66c0.38 0.28 0.76 0.45 1.13 0.56-0.37-0.19-0.75-0.38-1.13-0.56z" style="color:#000000" fill="url(#radialGradient16619)" fill-rule="evenodd"/>
      <path id="path6178" opacity=".64315" style="color:#000000" d="m789.24 315.18c7.28 5.38 17.54 13.05 23.5 23.75 1.03 32.91 1.6 65.93 0 99.5" stroke="url(#linearGradient16609)" stroke-linecap="round" fill="none"/>
      <path id="path6237" opacity=".3" style="color:#000000" d="m890.27 298.58l19.32 7.35c5.01 9.65 9.66 20.08 12.82 31.59" stroke="#fdca01" fill="none"/>
      <path id="path4991" d="m985.3 323.82c-6.97 0-13.6 13.46-18.13 34.1 3.72-12.25 10.03-20.85 16.19-20.85 0.96 0 1.86 0.2 2.72 0.6 3.3 0.12 5.77 2.92 7.22 11.56 1.12 4.53 1.58 10.09 1.31 16.19 0.27 8.15 0.25 18.43-0.16 31.62l3.47 2.94c-2.85-26.88 7.08-31.46-8.97-74.78 0-0.03-0.02-0.04-0.03-0.07-1.17-0.83-2.36-1.31-3.62-1.31zm-21.31 52.35c-0.46 3.41-0.87 6.91-1.22 10.53 0.38-2.28 0.75-4.4 1.12-6.41 0-1.34 0.02-2.72 0.1-4.12z" style="color:#000000" fill="url(#radialGradient16623)" fill-rule="evenodd"/>
      <path id="path5004" opacity=".7" style="color:#000000" d="m987.52 337.17c-0.45-0.01-0.92 0.1-1.41 0.28-0.19 0.06-0.37 0.14-0.56 0.25 7.01-0.3 10.4 10.03 8.9 59.34l0.47 0.41c0.68-5.61 1.07-11.92 1.07-18.63 0.81-22.38-1.75-41.63-8.47-41.65z" fill-rule="evenodd" fill="#eee"/>
      <g id="g8050" fill-rule="evenodd" transform="translate(147.74 -111.43)">
        <g id="g7042">
          <path id="rect6661" style="color:#000000" d="m503 437.86l56-5c-40.96 29.41-79.65 59.96-117 101l-80-0.5c41.87-33.7 84.73-67.04 141-95.5z"/>
          <path id="rect6982" d="m559 432.88l-56 5c-6.35 3.21-12.51 6.48-18.53 9.81l10.53-3.31 42.91 3.93c6.96-5.21 13.99-10.34 21.09-15.43z" style="color:#000000" fill="url(#linearGradient16625)"/>
          <path id="path4929" d="m523.12 441.41c-0.49-0.01-0.98 0.01-1.46 0.03-14.87 0.64-20.32 7.22-28.28 12.53-1.57 3.95 2.63 14.24 9.56 21.87 12.18-10.15 24.55-19.76 37.12-29.12-5.34-3.16-11.34-5.21-16.94-5.31z" style="color:#000000" fill="url(#linearGradient16627)"/>
          <path id="path7557" d="m500.15 466.75c-24.68 0.28-44.35 16.44-43.37 28.94 0.38 4.84 4.05 9.13 9.97 12.62 15.61-15.16 31.49-28.92 47.69-41.87-4.73-1.3-9.78 0.25-14.29 0.31z" style="color:#000000" fill="url(#linearGradient16629)"/>
          <path id="path5857" d="m509.5 467.09c-3.04 0.1-6.21 0.78-9.34 0.82-3.03 0.03-5.95 0.32-8.78 0.81 4.05 1 7.52 3.49 10.06 6.87 3.39-2.83 6.8-5.61 10.22-8.37-0.29-0.02-0.56-0.12-0.85-0.13-0.43-0.01-0.88-0.01-1.31 0z" style="color:#000000" fill="url(#linearGradient16631)"/>
          <path id="path9369" style="color:#000000" d="m487.38 469.34c-7.5 0-13.85 5.3-16.19 12.69 2.37-5.33 7.91-9.06 14.37-9.06 5.4 0 10.16 2.6 12.97 6.56 0.92-0.77 1.83-1.54 2.75-2.31-3.11-4.77-8.18-7.88-13.9-7.88z"/>
          <path id="path8456" d="m470.5 491.62c0.57 3.51 2.03 6.67 4.09 9.22 0.47-0.43 0.94-0.87 1.41-1.31-2.65-1.97-4.61-4.72-5.5-7.91z" style="color:#000000" fill="#666"/>
          <path id="path10256" d="m483.97 474.66c-6.22 0-11.28 5.01-11.28 11.18 0 4.66 2.89 8.63 6.97 10.32 5.01-4.59 10.05-9.05 15.12-13.41-1.35-4.67-5.67-8.09-10.81-8.09z" style="color:#000000" fill="#1a1a1a"/>
          <path id="path4879" d="m485.56 474.12c-6.01 0-11.13 3.48-13.31 8.38-0.28 0.51-0.89 0.74-1.43 0.53-0.55-0.2-0.85-0.78-0.73-1.34 0.82-2.56 2.19-4.77 3.82-6.75-1.52 0.85-3.05 1.7-4.38 2.65-7.68 5.5-12.03 12.4-11.59 18 0.32 4.12 3.43 7.93 8.68 11.22 9.97-9.65 20.06-18.7 30.26-27.37-2.65-3.18-6.69-5.32-11.32-5.32z" style="color:#000000" fill="url(#linearGradient16633)"/>
          <path id="path4932" d="m486.19 473.16c-4.25-0.01-8.42 2.15-11.22 5.78 3.2-3.31 8.31-4.56 13.09-2.82 3.25 1.19 5.71 3.53 7.06 6.35 0.79-0.67 1.56-1.36 2.35-2.03-1.45-2.97-3.87-5.34-7.06-6.5-1.39-0.51-2.81-0.78-4.22-0.78z" style="color:#000000" fill="#eee"/>
          <path id="path4937" d="m474.03 480.59c-2.63 3.41-3.61 7.74-2.59 11.6 0.34 1.28 0.89 2.51 1.68 3.65 0.92 1.33 2.08 2.4 3.38 3.22 0.76-0.71 1.52-1.42 2.28-2.12-1.62-0.87-3.08-2.12-4.22-3.75-2.72-3.94-2.77-8.9-0.53-12.6z" style="color:#000000" fill="#eee"/>
          <path id="path4962" d="m523.09 443c-0.43-0.01-0.89 0.01-1.37 0.03-14.04 0.61-19.07 6.46-26.88 11.81-0.34 1.24 0.03 4.4 1.6 8.07 0.23 0.53 0.48 1.07 0.75 1.62l30.34-20.97c-1.5-0.32-2.99-0.53-4.44-0.56z" style="color:#000000" fill="url(#linearGradient16635)"/>
          <path id="path4981" d="m524.59 443.69c-6.38 0-11.43 5.82-11.43 12.75 0 3.31 1.18 6.31 3.06 8.59 3.32-2.64 6.65-5.25 10-7.84l0.06-5.6 5.53-2.21c0.44-0.18 0.78-0.57 0.88-1.04 0.1-0.46-0.05-0.94-0.38-1.28-2-2.05-4.73-3.37-7.72-3.37z" style="color:#000000" fill="url(#linearGradient16637)"/>
          <path id="path4947" d="m524.59 445.12c-5.51 0-10 5.07-10 11.32 0 2.99 1.05 5.69 2.72 7.72 2.49-1.97 4.97-3.91 7.47-5.85l0.06-7.69 6.44-2.56c-1.77-1.81-4.11-2.94-6.69-2.94z" style="color:#000000" fill="#980101"/>
          <path id="path5974" d="m482.03 477.68c-3.71 1.1-6.75 4.8-6.77 8.21-0.01 2.55 1.66 4.27 4.06 4.5 0.29 0.03 0.63-0.16 0.82-0.45s0.18-0.61-0.03-0.77c-0.8-0.62-1.27-1.6-1.27-2.84 0.02-2.73 2.43-5.66 5.4-6.54 0.76-0.23 1.48-0.31 2.13-0.24 0.29 0.03 0.63-0.16 0.82-0.45s0.17-0.61-0.03-0.77c-1.23-0.97-3.08-1.27-5.13-0.65z" style="color:#000000" fill="url(#radialGradient16639)"/>
          <path id="path5977" d="m523.11 446.78c-3.33 0.81-6.26 4.05-6.53 7.22-0.2 2.36 1.13 4.06 3.22 4.41 0.25 0.05 0.56-0.1 0.75-0.36s0.2-0.56 0.03-0.72c-0.65-0.63-0.99-1.57-0.9-2.71 0.22-2.53 2.54-5.1 5.21-5.75 0.68-0.16 1.32-0.19 1.88-0.09 0.25 0.05 0.56-0.1 0.75-0.36s0.2-0.56 0.03-0.72c-1-0.98-2.6-1.36-4.44-0.92z" style="color:#000000" fill="url(#radialGradient16641)"/>
          <path id="rect7030" d="m525.34 441.5c0.07 0.02 0.21 0.07 0.28 0.09 4.86 0.57 9.89 2.43 14.44 5.13l3.03-2.25c-2.54-1.22-12.44-3.2-17.75-2.97z" style="color:#000000" fill="#fff"/>
        </g>
        <path id="path7061" style="color:#000000" d="m399.52 516.73l59.39-2.83" stroke="url(#radialGradient16643)" stroke-linecap="round" fill="#fff"/>
      </g>
      <path id="path14244" opacity=".6" style="color:#000000" d="m494.67 294.7c-13.35 1.03-26.71 1.95-40.06 3.1 0.12 3.97 7.6 0.42 10.63 1.11l21-1.59c-1.61 1.52-6.69 4.37-6.13 5.06 30.35-2.75 60.78 0.41 91.06 2.57 1.69-3.82-6.56-1.7-8.95-2.66-25.39-1.91-50.9-3.94-76.36-2.22 3.29-3.89 8.35-3.36 12.92-3.31 27.24 0.73 54.49 1.27 81.74 1.94 5.91 2.64 11.73 5.48 17.7 7.99 2.23-3.33-6.2-3.94-8.26-5.9-4.83-2.37-9.7-4.94-15.25-4.23-26.68-0.62-53.36-1.25-80.04-1.86z" fill-rule="evenodd" fill="url(#linearGradient16645)"/>
      <path id="path14262" opacity=".6" style="color:#000000" d="m352.27 296.48c-0.31 1.09 5.47 0.35 7.47 0.9 4.84 0.09 11.77-2.84 11.29 5.64 0.41 3.59-0.5 8.6 4.65 7.27 11.77 0.54 23.54 1.51 35.32 1.72 7.09-0.08 14.18-0.14 21.27-0.19-5.82-1.47-12.2-0.77-18.23-1.45-9.5-2.18-19.21-3.96-28.79-5.99-2.55 0.17-7.83-3.16-8.57-0.13-7.99 5.39 15.92 2.86 23.57 5.37-8.91-0.49-17.82-0.97-26.73-1.45-1.08-3.46 0.65-9.95-2.33-11.36-6.31-0.09-12.61-0.24-18.92-0.33zm-2.66 4.22c-13.67 0.12-27.33 0.25-41 0.37-5.37 2.5 2.99 2.08 5.16 1.93 12.08-0.13 24.17-0.12 36.25-0.4 1.01-0.33 0.63-2-0.41-1.9z" fill-rule="evenodd" fill="url(#linearGradient16647)"/>
      <path id="path15309" opacity=".8" style="color:#000000" d="m676.02 280.57c-5.07 0.11-10.45 0.66-16.03 1.69-19.02 3.5-35.75 11.74-45.35 21.28 32.07-2.84 62.94-2.92 99.28-2.81v-0.22c0-12.63-15.96-20.41-37.9-19.94z" fill-rule="evenodd" fill="url(#linearGradient16649)"/>
    </g>
  </g>
  <metadata>
    <rdf:RDF>
      <cc:Work>
        <dc:format>image/svg+xml</dc:format>
        <dc:type rdf:resource="http://purl.org/dc/dcmitype/StillImage"/>
        <cc:license rdf:resource="http://creativecommons.org/licenses/publicdomain/"/>
        <dc:publisher>
          <cc:Agent rdf:about="http://openclipart.org/">
            <dc:title>Openclipart</dc:title>
          </cc:Agent>
        </dc:publisher>
        <dc:title>Lamborghini Gallardo</dc:title>
        <dc:date>2007-01-03T11:18:15</dc:date>
        <dc:description>car, clip art, clipart, color, editorial pick, lamborghini, sports car, transport, transportation, vehicle, yellow, </dc:description>
        <dc:source>http://openclipart.org/detail/2979/lamborghini-gallardo-by-thestructorr-2979</dc:source>
        <dc:creator>
          <cc:Agent>
            <dc:title>TheStructorr</dc:title>
          </cc:Agent>
        </dc:creator>
        <dc:subject>
          <rdf:Bag>
            <rdf:li>car</rdf:li>
            <rdf:li>clip art</rdf:li>
            <rdf:li>clipart</rdf:li>
            <rdf:li>color</rdf:li>
            <rdf:li>editorial pick</rdf:li>
            <rdf:li>lamborghini</rdf:li>
            <rdf:li>sports car</rdf:li>
            <rdf:li>transport</rdf:li>
            <rdf:li>transportation</rdf:li>
            <rdf:li>vehicle</rdf:li>
            <rdf:li>yellow</rdf:li>
          </rdf:Bag>
        </dc:subject>
      </cc:Work>
      <cc:License rdf:about="http://creativecommons.org/licenses/publicdomain/">
        <cc:permits rdf:resource="http://creativecommons.org/ns#Reproduction"/>
        <cc:permits rdf:resource="http://creativecommons.org/ns#Distribution"/>
        <cc:permits rdf:resource="http://creativecommons.org/ns#DerivativeWorks"/>
      </cc:License>
    </rdf:RDF>
  </metadata>
</svg>
